<mxfile host="65bd71144e">
    <diagram id="ZgQflxd6GpGnSDdfP6lF" name="Page-1">
        <mxGraphModel dx="1093" dy="583" grid="1" gridSize="10" guides="1" tooltips="1" connect="1" arrows="1" fold="1" page="1" pageScale="1" pageWidth="850" pageHeight="1100" math="0" shadow="0">
            <root>
                <mxCell id="0"/>
                <mxCell id="1" parent="0"/>
                <mxCell id="2" value="First Boot Partition" style="rounded=0;whiteSpace=wrap;html=1;fillColor=#dae8fc;strokeColor=#6c8ebf;" vertex="1" parent="1">
                    <mxGeometry x="80" y="80" width="120" height="20" as="geometry"/>
                </mxCell>
                <mxCell id="3" value="Second Boot Partition" style="rounded=0;whiteSpace=wrap;html=1;fillColor=#dae8fc;strokeColor=#6c8ebf;" vertex="1" parent="1">
                    <mxGeometry x="80" y="100" width="120" height="20" as="geometry"/>
                </mxCell>
                <mxCell id="4" value="GRUB Environment" style="rounded=0;whiteSpace=wrap;html=1;fillColor=#dae8fc;strokeColor=#6c8ebf;" vertex="1" parent="1">
                    <mxGeometry x="80" y="120" width="120" height="20" as="geometry"/>
                </mxCell>
                <mxCell id="5" value="GUID Partition Table" style="rounded=0;whiteSpace=wrap;html=1;fillColor=#dae8fc;strokeColor=#6c8ebf;" vertex="1" parent="1">
                    <mxGeometry x="80" y="60" width="120" height="20" as="geometry"/>
                </mxCell>
                <mxCell id="6" value="50 MiB, VFAT" style="rounded=0;whiteSpace=wrap;html=1;fillColor=#dae8fc;strokeColor=#6c8ebf;" vertex="1" parent="1">
                    <mxGeometry x="200" y="80" width="120" height="20" as="geometry"/>
                </mxCell>
                <mxCell id="7" value="50 MiB&lt;br&gt;" style="rounded=0;whiteSpace=wrap;html=1;fillColor=#dae8fc;strokeColor=#6c8ebf;" vertex="1" parent="1">
                    <mxGeometry x="200" y="100" width="120" height="20" as="geometry"/>
                </mxCell>
                <mxCell id="8" value="10 MiB, VFAT" style="rounded=0;whiteSpace=wrap;html=1;fillColor=#dae8fc;strokeColor=#6c8ebf;" vertex="1" parent="1">
                    <mxGeometry x="200" y="120" width="120" height="20" as="geometry"/>
                </mxCell>
                <mxCell id="9" value="SDV Rescue" style="rounded=0;whiteSpace=wrap;html=1;fillColor=#ffe6cc;strokeColor=#d79b00;" vertex="1" parent="1">
                    <mxGeometry x="80" y="140" width="120" height="40" as="geometry"/>
                </mxCell>
                <mxCell id="10" value="~216 MB ext4" style="rounded=0;whiteSpace=wrap;html=1;fillColor=#ffe6cc;strokeColor=#d79b00;" vertex="1" parent="1">
                    <mxGeometry x="200" y="140" width="120" height="40" as="geometry"/>
                </mxCell>
                <mxCell id="11" value="SDV Root A" style="rounded=0;whiteSpace=wrap;html=1;fillColor=#d5e8d4;strokeColor=#82b366;" vertex="1" parent="1">
                    <mxGeometry x="80" y="180" width="120" height="60" as="geometry"/>
                </mxCell>
                <mxCell id="12" value="~400 - 600 MB ext4" style="rounded=0;whiteSpace=wrap;html=1;fillColor=#d5e8d4;strokeColor=#82b366;" vertex="1" parent="1">
                    <mxGeometry x="200" y="180" width="120" height="60" as="geometry"/>
                </mxCell>
                <mxCell id="13" value="SDV Root B" style="rounded=0;whiteSpace=wrap;html=1;fillColor=#d5e8d4;strokeColor=#82b366;" vertex="1" parent="1">
                    <mxGeometry x="80" y="240" width="120" height="60" as="geometry"/>
                </mxCell>
                <mxCell id="14" value="~400 - 600 MB ext4" style="rounded=0;whiteSpace=wrap;html=1;fillColor=#d5e8d4;strokeColor=#82b366;" vertex="1" parent="1">
                    <mxGeometry x="200" y="240" width="120" height="60" as="geometry"/>
                </mxCell>
                <mxCell id="15" value="SDV Data" style="rounded=0;whiteSpace=wrap;html=1;fillColor=#fff2cc;strokeColor=#d6b656;" vertex="1" parent="1">
                    <mxGeometry x="80" y="300" width="120" height="80" as="geometry"/>
                </mxCell>
                <mxCell id="16" value="2 GiB ext4" style="rounded=0;whiteSpace=wrap;html=1;fillColor=#fff2cc;strokeColor=#d6b656;" vertex="1" parent="1">
                    <mxGeometry x="200" y="300" width="120" height="80" as="geometry"/>
                </mxCell>
                <mxCell id="17" value="Boot Loader (GRUB) +&amp;nbsp;Linux Kernel" style="rounded=0;whiteSpace=wrap;html=1;fillColor=#dae8fc;strokeColor=#6c8ebf;" vertex="1" parent="1">
                    <mxGeometry x="320" y="80" width="280" height="20" as="geometry"/>
                </mxCell>
                <mxCell id="18" value="Reserved, empty" style="rounded=0;whiteSpace=wrap;html=1;fillColor=#dae8fc;strokeColor=#6c8ebf;" vertex="1" parent="1">
                    <mxGeometry x="320" y="100" width="280" height="20" as="geometry"/>
                </mxCell>
                <mxCell id="19" value="Bootloader + RAUC status files" style="rounded=0;whiteSpace=wrap;html=1;fillColor=#dae8fc;strokeColor=#6c8ebf;" vertex="1" parent="1">
                    <mxGeometry x="320" y="120" width="280" height="20" as="geometry"/>
                </mxCell>
                <mxCell id="20" value="Minimal operating system" style="rounded=0;whiteSpace=wrap;html=1;fillColor=#ffe6cc;strokeColor=#d79b00;" vertex="1" parent="1">
                    <mxGeometry x="320" y="140" width="280" height="40" as="geometry"/>
                </mxCell>
                <mxCell id="21" value="&lt;b&gt;Base operating system&lt;/b&gt;&lt;br&gt;+ SDV core native services" style="rounded=0;whiteSpace=wrap;html=1;fillColor=#d5e8d4;strokeColor=#82b366;" vertex="1" parent="1">
                    <mxGeometry x="320" y="180" width="280" height="60" as="geometry"/>
                </mxCell>
                <mxCell id="22" value="&lt;b&gt;Base operating system&lt;/b&gt;&lt;br style=&quot;border-color: var(--border-color);&quot;&gt;+ SDV core native services" style="rounded=0;whiteSpace=wrap;html=1;fillColor=#d5e8d4;strokeColor=#82b366;" vertex="1" parent="1">
                    <mxGeometry x="320" y="240" width="280" height="60" as="geometry"/>
                </mxCell>
                <mxCell id="23" value="&lt;b&gt;Runtime Data:&lt;/b&gt;&lt;br&gt;Container registry, mounted container root filesystems and other /var mounts" style="rounded=0;whiteSpace=wrap;html=1;fillColor=#fff2cc;strokeColor=#d6b656;" vertex="1" parent="1">
                    <mxGeometry x="320" y="300" width="280" height="80" as="geometry"/>
                </mxCell>
            </root>
        </mxGraphModel>
    </diagram>
</mxfile>